<mxfile host="app.diagrams.net" modified="2023-04-28T12:41:57.701Z" agent="Mozilla/5.0 (Windows NT 10.0; Win64; x64) AppleWebKit/537.36 (KHTML, like Gecko) Chrome/111.0.0.0 Safari/537.36 OPR/97.0.0.0" version="21.2.3" etag="8DOT6DrwFhs6Sd5UBKQu" type="github">
  <diagram name="PÃ¡gina-1" id="SuhtmjgSWXZqV55DMppO">
    <mxGraphModel>
      <root>
        <mxCell id="0" />
        <mxCell id="1" parent="0" />
      </root>
    </mxGraphModel>
  </diagram>
</mxfile>
